<svg width="1080" height="1658" viewBox="0 0 1080 1658" fill="none" xmlns="http://www.w3.org/2000/svg">
<path d="M1064.75 180.333C1050.49 158.501 1029.66 157.874 1005.93 157.16C1003.24 157.079 1000.51 156.997 997.753 156.883C995.652 156.786 993.333 156.823 990.91 156.862C981.285 157.017 970.024 157.198 964.351 149.111C957.774 139.735 958.398 121.615 958.913 106.657C959.076 101.931 959.228 97.5167 959.138 93.7973C958.213 59.0495 956.285 22.1384 942.87 9.7991C932.753 0.541111 902.488 1.82368 874.576 3.00652C865.527 3.38996 856.726 3.76293 848.939 3.76293H254.827C242.865 3.76293 230.326 2.78908 218.006 1.83222C193.999 -0.0322565 170.823 -1.83222 154.366 3.76293C130.481 11.9227 128.864 54.801 127.341 95.1772L127.259 97.3495C125.98 130.682 117.718 156.402 90.3355 153.811C58.4877 150.847 26.7973 149.912 12.3979 178.73C-4.60811 212.827 -1.1008 248.519 5.18131 312.45C6.07868 321.582 7.03266 331.29 7.99156 341.652H1073.94C1074.55 334.078 1075.2 326.601 1075.84 319.246C1080.83 261.728 1085.18 211.614 1064.75 180.333Z" fill="#8047F8"/>
<path fill-rule="evenodd" clip-rule="evenodd" d="M91.0044 405.058C107.652 630.333 124.119 855.866 140.585 1081.4L140.595 1081.54C149.536 1204 158.477 1326.46 167.447 1448.88H201.459C203.776 1468.04 206.428 1491.7 209.224 1516.64C214.9 1567.27 221.17 1623.21 226.441 1657.58H230.203C264.847 1644.9 504.344 1542.55 504.452 1135.07C504.408 1133.91 504.446 1132.75 504.567 1131.6H445.398C442.533 1131.57 439.757 1130.61 437.495 1128.87C435.234 1127.14 433.613 1124.71 432.882 1121.97C427.116 1107.73 422.467 1093.08 418.976 1078.13C384.167 1097.79 356.525 1127.8 339.989 1163.89C324.293 1126.93 322.238 1085.68 334.185 1047.37C346.132 1009.06 371.32 976.115 405.348 954.295C405.787 835.391 450.314 720.771 530.503 632.13L531.754 631.031C534.085 629.016 537.069 627.895 540.164 627.87C541.953 627.885 543.721 628.267 545.354 628.992C547.007 629.726 548.485 630.796 549.693 632.13C630.819 720.891 675.111 836.613 673.736 956.219C708.399 977.432 734.1 1010.35 746.069 1048.87C758.037 1087.39 755.46 1128.9 738.816 1165.68C722.369 1129.53 694.705 1099.49 659.829 1079.92C657.699 1094.4 653.776 1108.57 648.148 1122.11C646.201 1127.88 642.308 1131.6 638.414 1131.6H575.313C575.413 1132.29 575.483 1132.98 575.524 1133.68L575.548 1133.84V1134.17C575.571 1134.77 575.571 1135.38 575.55 1135.98C576.414 1555.16 831.051 1650.3 852.516 1657.58H859.857C861.732 1624.56 867.833 1579 873.781 1534.59C877.88 1503.98 881.906 1473.92 884.426 1448.88H918.831C929.843 1294.68 941.17 1140.91 952.496 987.136L952.502 987.053L952.506 987.008C966.993 790.316 981.482 593.618 995.313 396.004H93.2075C90.6109 396.511 90.788 400.758 91.0044 405.058ZM540.164 627.87L540.098 627.87H540.237L540.164 627.87Z" fill="#8047F8"/>
</svg>
